<?xml version="1.0" encoding="UTF-8"?>
<svg width="40" height="40" viewBox="0 0 40 40" fill="none" xmlns="http://www.w3.org/2000/svg">
  <path d="M36.6667 16.6667C36.6667 15.5621 35.7712 14.6667 34.6667 14.6667C32.4575 14.6667 30.6667 12.8758 30.6667 10.6667C30.6667 9.5621 29.7712 8.66668 28.6667 8.66668H11.3333C10.2288 8.66668 9.33334 9.5621 9.33334 10.6667C9.33334 12.8758 7.54251 14.6667 5.33334 14.6667C4.22877 14.6667 3.33334 15.5621 3.33334 16.6667V23.3333C3.33334 24.4379 4.22877 25.3333 5.33334 25.3333C7.54251 25.3333 9.33334 27.1242 9.33334 29.3333C9.33334 30.4379 10.2288 31.3333 11.3333 31.3333H28.6667C29.7712 31.3333 30.6667 30.4379 30.6667 29.3333C30.6667 27.1242 32.4575 25.3333 34.6667 25.3333C35.7712 25.3333 36.6667 24.4379 36.6667 23.3333V16.6667Z" stroke="#333333" stroke-width="2" stroke-linecap="round" stroke-linejoin="round"/>
  <path d="M15 18.3333L18.3333 21.6667" stroke="#333333" stroke-width="2" stroke-linecap="round" stroke-linejoin="round"/>
  <path d="M21.6667 18.3333L25 21.6667" stroke="#333333" stroke-width="2" stroke-linecap="round" stroke-linejoin="round"/>
</svg> 